<svg xmlns="http://www.w3.org/2000/svg" xmlns:xlink="http://www.w3.org/1999/xlink" version="1.1" width="16" height="16" viewBox="0 0 16 16"><defs><clipPath id="master_svg0_46_08597"><rect x="0" y="0" width="16" height="16" rx="0"/></clipPath></defs><g clip-path="url(#master_svg0_46_08597)"><g><path d="M2.666667,2L13.3333,2C13.7015,2,14,2.298477,14,2.666667L14,13.3333C14,13.7015,13.7015,14,13.3333,14L2.666667,14C2.298477,14,2,13.7015,2,13.3333L2,2.666667C2,2.298477,2.298477,2,2.666667,2ZM3.33333,3.33333L3.33333,12.6667L12.6667,12.6667L12.6667,3.33333L3.33333,3.33333ZM7.33333,7.33333L7.33333,4.66667L8.66667,4.66667L8.66667,7.33333L11.33333,7.33333L11.33333,8.66667L8.66667,8.66667L8.66667,11.33333L7.33333,11.33333L7.33333,8.66667L4.66667,8.66667L4.66667,7.33333L7.33333,7.33333Z" /></g></g></svg>