<svg xmlns="http://www.w3.org/2000/svg" xmlns:xlink="http://www.w3.org/1999/xlink" version="1.1" width="16" height="16" viewBox="0 0 16 16"><g><g><path d="M11.104466875,1.2626953125C11.104466875,1.2626953125,14.404296875,4.5625253125,14.404296875,4.5625253125C14.404296875,4.5625253125,5.016626875,13.9501953125,5.016626875,13.9501953125C5.016626875,13.9501953125,1.716796875,13.9501953125,1.716796875,13.9501953125C1.716796875,13.9501953125,1.716796875,10.6503653125,1.716796875,10.6503653125C1.716796875,10.6503653125,11.104466875,1.2626953125,11.104466875,1.2626953125C11.104466875,1.2626953125,11.104466875,1.2626953125,11.104466875,1.2626953125ZM3.050126875,11.2026253125C3.050126875,11.2026253125,3.050126875,12.6167953125,3.050126875,12.6167953125C3.050126875,12.6167953125,4.464346875,12.6167953125,4.464346875,12.6167953125C4.464346875,12.6167953125,10.868726875,6.2124253125,10.868726875,6.2124253125C10.868726875,6.2124253125,9.454526874999999,4.7982253125,9.454526874999999,4.7982253125C9.454526874999999,4.7982253125,3.050126875,11.2026253125,3.050126875,11.2026253125C3.050126875,11.2026253125,3.050126875,11.2026253125,3.050126875,11.2026253125ZM10.397326875,3.8554153125C10.397326875,3.8554153125,11.811596875,5.2696253125,11.811596875,5.2696253125C11.811596875,5.2696253125,12.518696875,4.5625253125,12.518696875,4.5625253125C12.518696875,4.5625253125,11.104466875,3.1483153125000003,11.104466875,3.1483153125000003C11.104466875,3.1483153125000003,10.397326875,3.8554153125,10.397326875,3.8554153125C10.397326875,3.8554153125,10.397326875,3.8554153125,10.397326875,3.8554153125Z" fill-rule="evenodd" /></g></g></svg>