<svg xmlns="http://www.w3.org/2000/svg" xmlns:xlink="http://www.w3.org/1999/xlink" version="1.1" width="20" height="20" viewBox="0 0 20 20"><defs><clipPath id="master_svg0_3_7654"><rect x="0" y="0" width="20" height="20" rx="0"/></clipPath></defs><g clip-path="url(#master_svg0_3_7654)"><g></g><g><path d="M10.97265625,2.22222900390625C10.97265625,2.22222900390625,16.80765625,2.22222900390625,16.80765625,2.22222900390625C17.502556249999998,2.22222900390625,18.05595625,2.78637900390625,18.05595625,3.47222900390625C18.05595625,3.47222900390625,18.05595625,9.30555900390625,18.05595625,9.30555900390625C18.05595625,9.30555900390625,16.38935625,9.30555900390625,16.38935625,9.30555900390625C16.38935625,9.30555900390625,16.38935625,3.88889900390625,16.38935625,3.88889900390625C16.38935625,3.88889900390625,10.97265625,3.88889900390625,10.97265625,3.88889900390625C10.97265625,3.88889900390625,10.97265625,2.22222900390625,10.97265625,2.22222900390625C10.97265625,2.22222900390625,10.97265625,2.22222900390625,10.97265625,2.22222900390625ZM2.2226562500000133,16.80552900390625C2.2226562500000133,16.80552900390625,2.222656746704,10.97222900390625,2.222656746704,10.97222900390625C2.222656746704,10.97222900390625,3.88932625,10.97222900390625,3.88932625,10.97222900390625C3.88932625,10.97222900390625,3.88932625,16.38892900390625,3.88932625,16.38892900390625C3.88932625,16.38892900390625,9.30598625,16.38892900390625,9.30598625,16.38892900390625C9.30598625,16.38892900390625,9.30598625,18.05552900390625,9.30598625,18.05552900390625C9.30598625,18.05552900390625,3.4709362500000003,18.05552900390625,3.4709362500000003,18.05552900390625C2.77608525,18.05552900390625,2.2226561506588,17.491429003906248,2.2226562500000133,16.80552900390625C2.2226562500000133,16.80552900390625,2.2226562500000133,16.80552900390625,2.2226562500000133,16.80552900390625Z" /></g></g></svg>