<svg xmlns="http://www.w3.org/2000/svg" xmlns:xlink="http://www.w3.org/1999/xlink" version="1.1" width="16" height="16" viewBox="0 0 16 16"><defs><clipPath id="master_svg0_38_9850/38_7467"><rect x="0" y="0" width="16" height="16" rx="0"/></clipPath></defs><g clip-path="url(#master_svg0_38_9850/38_7467)"><g><path d="M13.8012259765625,3.98318703125L8.4678459765625,1.15966903125C8.1751659765625,1.00471983125,7.8247559765625,1.00471983125,7.5320759765625,1.15966903125L2.1987389765625,3.98318703125C1.8713749765625,4.15649703125,1.6666259765625,4.496567031250001,1.6666259765625,4.86697703125L1.6666259765625,11.13225703125C1.6666259765625,11.50265703125,1.8713729765625,11.84275703125,2.1987349765625,12.01605703125L7.5320659765625,14.83955703125C7.8247559765625,14.99455703125,8.1751659765625,14.99455703125,8.4678459765625,14.83955703125L13.8012259765625,12.01605703125C14.1285259765625,11.84275703125,14.3333259765625,11.50265703125,14.3333259765625,11.13225703125L14.3333259765625,4.86697703125C14.3333259765625,4.496567031250001,14.1285259765625,4.15649703125,13.8012259765625,3.98318703125ZM12.4731259765625,4.89560703125L8.4731559765625,2.74703703125C8.1776559765625,2.5883070312500003,7.8222559765625,2.5883070312500003,7.5267559765625,2.74703703125L3.5267559765625,4.89560703125C3.2023459765625,5.06986703125,2.9999559765625,5.40831703125,2.9999559765625,5.77656703125L2.9999559765625,10.20899703125C2.9999559765625,10.57723703125,3.2023359765625,10.91567703125,3.5267359765624997,11.08995703125L7.5267359765625,13.23865703125C7.8222459765625,13.39735703125,8.177665976562501,13.39735703125,8.473185976562501,13.23865703125L12.4732259765625,11.08995703125C12.7976259765625,10.91567703125,12.9999259765625,10.57723703125,12.9999259765625,10.20899703125L12.9999259765625,5.77656703125C12.9999259765625,5.40831703125,12.7975259765625,5.06986703125,12.4731259765625,4.89560703125Z" fill-rule="evenodd"/></g><g><path d="M8.0000440234375,6.6663378125C7.2636740234375,6.6663378125,6.6667040234375,7.2633078125,6.6667040234375,7.9996778125C6.6667040234375,8.736037812500001,7.2636740234375,9.3330078125,8.0000440234375,9.3330078125C8.7364440234375,9.3330078125,9.3333740234375,8.736037812500001,9.3333740234375,7.9996778125C9.3333740234375,7.2633078125,8.7364440234375,6.6663378125,8.0000440234375,6.6663378125C8.0000440234375,6.6663378125,8.0000440234375,6.6663378125,8.0000440234375,6.6663378125ZM5.3333740234375,7.9996778125C5.3333740234375,6.5269078125,6.5273040234375,5.3330078125,8.0000440234375,5.3330078125C9.4728040234375,5.3330078125,10.6667040234375,6.5269078125,10.6667040234375,7.9996778125C10.6667040234375,9.4724378125,9.4728040234375,10.6663378125,8.0000440234375,10.6663378125C6.5273040234375,10.6663378125,5.3333740234375,9.4724378125,5.3333740234375,7.9996778125C5.3333740234375,7.9996778125,5.3333740234375,7.9996778125,5.3333740234375,7.9996778125Z" fill-rule="evenodd"/></g></g></svg>