<svg xmlns="http://www.w3.org/2000/svg" xmlns:xlink="http://www.w3.org/1999/xlink" version="1.1" width="12" height="13.106771469116211" viewBox="0 0 12 13.106771469116211"><g><path d="M6,0C6,0,12,3.72542,12,3.72542C12,3.72542,12,13.1068,12,13.1068C12,13.1068,0,13.1068,0,13.1068C0,13.1068,0,3.72542,0,3.72542C0,3.72542,6,0,6,0C6,0,6,0,6,0ZM5.33333,11.7734C5.33333,11.7734,6.66667,11.7734,6.66667,11.7734C6.66667,11.7734,6.66667,8.44013,6.66667,8.44013C6.66667,8.44013,5.33333,8.44013,5.33333,8.44013C5.33333,8.44013,5.33333,11.7734,5.33333,11.7734C5.33333,11.7734,5.33333,11.7734,5.33333,11.7734ZM8,11.7734C8,11.7734,8,7.1068,8,7.1068C8,7.1068,4,7.1068,4,7.1068C4,7.1068,4,11.7734,4,11.7734C4,11.7734,1.33333,11.7734,1.33333,11.7734C1.33333,11.7734,1.33333,4.48812,1.33333,4.48812C1.33333,4.48812,6,1.54688,6,1.54688C6,1.54688,10.6667,4.48812,10.6667,4.48812C10.6667,4.48812,10.6667,11.7734,10.6667,11.7734C10.6667,11.7734,8,11.7734,8,11.7734C8,11.7734,8,11.7734,8,11.7734Z" fill-rule="evenodd" /></g></svg>