<svg xmlns="http://www.w3.org/2000/svg" xmlns:xlink="http://www.w3.org/1999/xlink" version="1.1" width="16" height="16" viewBox="0 0 16 16"><g><g><path d="M6.332685625,1.3330078125L1.666015625,1.3330078125L1.666015625,5.3330078125L6.332685625,5.3330078125L6.332685625,3.9996778125L14.332715625,3.9996778125L14.332715625,2.6663378125L6.332685625,2.6663378125L6.332685625,1.3330078125ZM2.999345625,3.9996778125L2.999345625,2.6663378125L4.999345625,2.6663378125L4.999345625,3.9996778125L2.999345625,3.9996778125ZM1.666015625,8.6663378125L14.332715625,8.6663378125L14.332715625,7.3330078125L1.666015625,7.3330078125L1.666015625,8.6663378125ZM14.332715625,10.6663378125L9.666015625,10.6663378125L9.666015625,11.9997078125L1.666015625,11.9997078125L1.666015625,13.3330078125L9.666015625,13.3330078125L9.666015625,14.6663078125L14.332715625,14.6663078125L14.332715625,10.6663378125ZM10.999345625,13.3330078125L10.999345625,11.9997078125L12.999315625,11.9997078125L12.999315625,13.3330078125L10.999345625,13.3330078125Z" fill-rule="evenodd"/></g></g></svg>