<svg xmlns="http://www.w3.org/2000/svg" xmlns:xlink="http://www.w3.org/1999/xlink" version="1.1" width="16" height="16" viewBox="0 0 16 16"><defs><clipPath id="master_svg0_44_00428"><rect x="0" y="0" width="16" height="16" rx="0"/></clipPath></defs><g clip-path="url(#master_svg0_44_00428)"><g><path d="M2.66682609375,8.00016609375C2.66682609375,5.0546260937500005,5.0546260937500005,2.66682609375,8.00016609375,2.66682609375C10.94569609375,2.66682609375,13.33349609375,5.0546260937500005,13.33349609375,8.00016609375C13.33349609375,10.94569609375,10.94569609375,13.33349609375,8.00016609375,13.33349609375C5.0546260937500005,13.33349609375,2.66682609375,10.94569609375,2.66682609375,8.00016609375C2.66682609375,8.00016609375,2.66682609375,8.00016609375,2.66682609375,8.00016609375ZM8.00016609375,1.33349609375C4.31826609375,1.33349609375,1.33349609375,4.31826609375,1.33349609375,8.00016609375C1.33349609375,11.68209609375,4.31826609375,14.66679609375,8.00016609375,14.66679609375C11.68209609375,14.66679609375,14.66679609375,11.68209609375,14.66679609375,8.00016609375C14.66679609375,4.31826609375,11.68209609375,1.33349609375,8.00016609375,1.33349609375C8.00016609375,1.33349609375,8.00016609375,1.33349609375,8.00016609375,1.33349609375ZM11.29999609375,9.02386609375C11.29999609375,9.02386609375,8.00016609375,5.72402609375,8.00016609375,5.72402609375C8.00016609375,5.72402609375,4.70032609375,9.02386609375,4.70032609375,9.02386609375C4.70032609375,9.02386609375,5.64312609375,9.96666609375,5.64312609375,9.96666609375C5.64312609375,9.96666609375,8.00016609375,7.60962609375,8.00016609375,7.60962609375C8.00016609375,7.60962609375,10.35719609375,9.96666609375,10.35719609375,9.96666609375C10.35719609375,9.96666609375,11.29999609375,9.02386609375,11.29999609375,9.02386609375C11.29999609375,9.02386609375,11.29999609375,9.02386609375,11.29999609375,9.02386609375Z" fill-rule="evenodd" /></g></g></svg>