<svg xmlns="http://www.w3.org/2000/svg" xmlns:xlink="http://www.w3.org/1999/xlink" version="1.1" width="16" height="16" viewBox="0 0 16 16"><g><g><path d="M14.3333259765625,3.6663378125L1.6666259765625,3.6663378125L1.6666259765625,2.3330078125L14.3333259765625,2.3330078125L14.3333259765625,3.6663378125ZM10.0010159765625,12.6187078125L14.3333259765625,12.6187078125L14.3333259765625,4.9996778125L4.3332959765625,4.9996778125L4.3332959765625,12.6187078125L6.5239959765625,12.6187078125L7.4034859765625,14.5179078125L10.0010159765625,12.6187078125ZM12.9999259765625,11.2853878125L9.5655759765625,11.2853778125L7.9297659765625,12.4814078125L7.3759159765625,11.2853878125L5.6666259765625,11.2853878125L5.6666259765625,6.3330078125L12.9999259765625,6.3330078125L12.9999259765625,11.2853878125ZM3.6666259765625,8.3330078125L1.6666259765625,8.3330078125L1.6666259765625,6.9996778125L3.6666259765625,6.9996778125L3.6666259765625,8.3330078125ZM7.3332959765625,9.3330078125L7.3332959765625,7.9996778125L8.6666359765625,7.9996778125L8.6666259765625,8.6663378125L8.6666259765625,9.3330078125L8.6666359765625,9.9996878125L7.3332959765625,9.9996878125L7.3332959765625,9.3330078125ZM9.9999559765625,9.3330078125L9.9999559765625,7.9996778125L11.3333059765625,7.9996778125L11.3332959765625,8.6663378125L11.3332959765625,9.3330078125L11.3333059765625,9.9996878125L9.9999559765625,9.9996878125L9.9999559765625,9.3330078125ZM3.6666259765625,12.9997078125L1.6666259765625,12.9997078125L1.6666259765625,11.6663378125L3.6666259765625,11.6663378125L3.6666259765625,12.9997078125Z" fill-rule="evenodd" /></g></g></svg>