<svg xmlns="http://www.w3.org/2000/svg" xmlns:xlink="http://www.w3.org/1999/xlink" version="1.1" width="16" height="16" viewBox="0 0 16 16"><defs><clipPath id="master_svg0_44_7025"><rect x="0" y="0" width="16" height="16" rx="0"/></clipPath></defs><g clip-path="url(#master_svg0_44_7025)"><g><path d="M4.4657687500000005,4.463505390625C5.21139875,3.717855390625,6.13216875,3.257715390625,7.09526875,3.081285390625C7.09526875,3.081285390625,6.85503875,1.769775390625,6.85503875,1.769775390625C5.63426875,1.993408390625,4.46600875,2.577652390625,3.52295875,3.520695390625C1.04963875,5.994005390625,1.04963875,10.004075390625,3.52295875,12.477375390625C3.52295875,12.477375390625,2.38488875,13.615475390625,2.38488875,13.615475390625C2.38488875,13.615475390625,5.6038387499999995,13.615475390625,5.6038387499999995,13.615475390625C5.6038387499999995,13.615475390625,5.6038387499999995,10.396505390625,5.6038387499999995,10.396505390625C5.6038387499999995,10.396505390625,4.4657687500000005,11.534575390625,4.4657687500000005,11.534575390625C2.51314575,9.581945390625,2.51314575,6.416145390625,4.4657687500000005,4.463505390625C4.4657687500000005,4.463505390625,4.4657687500000005,4.463505390625,4.4657687500000005,4.463505390625ZM13.61656875,2.383808390625C13.61656875,2.383808390625,10.39756875,2.383808390625,10.39756875,2.383808390625C10.39756875,2.383808390625,10.39756875,5.602775390625,10.39756875,5.602775390625C10.39756875,5.602775390625,11.53563875,4.464685390625,11.53563875,4.464685390625C13.48826875,6.417305390625,13.48826875,9.583145390624999,11.53563875,11.535745390625C10.78999875,12.281375390625,9.86926875,12.741575390625,8.90613875,12.917975390625C8.90613875,12.917975390625,9.14639875,14.229475390625,9.14639875,14.229475390625C10.36713875,14.005875390625,11.53539875,13.421575390625,12.47846875,12.478575390625C14.95176875,10.005245390625,14.95176875,5.995205390625,12.47846875,3.521875390625C12.47846875,3.521875390625,13.61656875,2.383808390625,13.61656875,2.383808390625C13.61656875,2.383808390625,13.61656875,2.383808390625,13.61656875,2.383808390625Z" fill-rule="evenodd" /></g></g></svg>