<svg xmlns="http://www.w3.org/2000/svg" xmlns:xlink="http://www.w3.org/1999/xlink" version="1.1" width="16" height="16" viewBox="0 0 16 16"><defs><clipPath id="master_svg0_38_9850/38_7510"><rect x="0" y="0" width="16" height="16" rx="0"/></clipPath></defs><g clip-path="url(#master_svg0_38_9850/38_7510)"><g transform="matrix(0.7071067690849304,0.7071067690849304,-0.7071067690849304,0.7071067690849304,2.785504715553543,-6.569529440974293)"><path d="M15.9895459765625,1.83642671875C15.9895459765625,1.83642671875,15.9895459765625,3.83686671875,15.9895459765625,3.83686671875C15.9895459765625,4.38913671875,15.541845976562499,4.83686671875,14.9895459765625,4.83686671875C14.9895459765625,4.83686671875,12.9895459765625,4.83686671875,12.9895459765625,4.83686671875C12.4372559765625,4.83686671875,11.9895459765625,4.38913671875,11.9895459765625,3.83686671875C11.9895459765625,3.83686671875,11.9895459765625,1.83642671875,11.9895459765625,1.83642671875C11.1795159765625,2.44490671875,10.6562059765625,3.41360671875,10.6562059765625,4.50353671875C10.6562059765625,5.95383671875,11.5828159765625,7.18943671875,12.8783759765625,7.64736671875C12.8783759765625,7.64736671875,13.3228759765625,7.80446671875,13.3228759765625,7.80446671875C13.3228759765625,7.80446671875,13.3228759765625,12.83683671875,13.3228759765625,12.83683671875C13.3228759765625,12.83683671875,14.6562059765625,12.83683671875,14.6562059765625,12.83683671875C14.6562059765625,12.83683671875,14.6562059765625,7.80446671875,14.6562059765625,7.80446671875C14.6562059765625,7.80446671875,15.1007059765625,7.64736671875,15.1007059765625,7.64736671875C16.3962759765625,7.18943671875,17.3228759765625,5.95383671875,17.3228759765625,4.50353671875C17.3228759765625,3.41360671875,16.7995759765625,2.44490671875,15.9895459765625,1.83642671875C15.9895459765625,1.83642671875,15.9895459765625,1.83642671875,15.9895459765625,1.83642671875ZM14.6562059765625,0.77826971875C14.6562059765625,0.29593371874999996,15.136345976562499,-0.04771428124999999,15.5969059765625,0.12125401875C17.3813059765625,0.77592371875,18.6562059765625,2.48999671875,18.6562059765625,4.50353671875C18.6562059765625,6.36596671875,17.5654759765625,7.97223671875,15.9895459765625,8.72090671875C15.9895459765625,8.72090671875,15.9895459765625,13.17023671875,15.9895459765625,13.17023671875C15.9895459765625,13.72243671875,15.541845976562499,14.17023671875,14.9895459765625,14.17023671875C14.9895459765625,14.17023671875,12.9895459765625,14.17023671875,12.9895459765625,14.17023671875C12.4372559765625,14.17023671875,11.9895459765625,13.72243671875,11.9895459765625,13.17023671875C11.9895459765625,13.17023671875,11.9895459765625,8.72090671875,11.9895459765625,8.72090671875C10.4135959765625,7.97223671875,9.3228759765625,6.36596671875,9.3228759765625,4.50353671875C9.3228759765625,2.48999671875,10.5977659765625,0.77592371875,12.3821759765625,0.12125371875C12.842705976562499,-0.04770828125000001,13.3228759765625,0.29591571875,13.3228759765625,0.77826971875C13.3228759765625,0.77826971875,13.3228759765625,3.50353671875,13.3228759765625,3.50353671875C13.3228759765625,3.50353671875,14.6562059765625,3.50353671875,14.6562059765625,3.50353671875C14.6562059765625,3.50353671875,14.6562059765625,0.77826971875,14.6562059765625,0.77826971875C14.6562059765625,0.77826971875,14.6562059765625,0.77826971875,14.6562059765625,0.77826971875Z" fill-rule="evenodd" /></g></g></svg>