<svg xmlns="http://www.w3.org/2000/svg" xmlns:xlink="http://www.w3.org/1999/xlink" version="1.1" width="16" height="16" viewBox="0 0 16 16"><defs><clipPath id="master_svg0_46_7047"><rect x="0" y="16" width="16" height="16" rx="0"/></clipPath></defs><g transform="matrix(1,1.2246468525851679e-16,1.2246468525851679e-16,-1,-1.9594349641362686e-15,32)" clip-path="url(#master_svg0_46_7047)"><g transform="matrix(1,1.2246468525851679e-16,1.2246468525851679e-16,-1,-3.552713678800501e-15,58)"><path d="M2,30.33333C2,30.33333,14,30.33333,14,30.33333C14,30.33333,14,29,14,29C14,29,2,29,2,29C2,29,2,30.33333,2,30.33333C2,30.33333,2,30.33333,2,30.33333ZM7.33333,34.666669999999996C7.33333,34.666669999999996,14,34.666669999999996,14,34.666669999999996C14,34.666669999999996,14,33.333330000000004,14,33.333330000000004C14,33.333330000000004,7.33333,33.333330000000004,7.33333,33.333330000000004C7.33333,33.333330000000004,7.33333,34.666669999999996,7.33333,34.666669999999996C7.33333,34.666669999999996,7.33333,34.666669999999996,7.33333,34.666669999999996ZM14,39C14,39,2,39,2,39C2,39,2,37.666669999999996,2,37.666669999999996C2,37.666669999999996,14,37.666669999999996,14,37.666669999999996C14,37.666669999999996,14,39,14,39C14,39,14,39,14,39ZM2,32.348C2,32.08382,2.2926320000000002,31.92462,2.51442,32.06814C2.51442,32.06814,5.0675,33.72017,5.0675,33.72017C5.2705,33.8515,5.2705,34.1485,5.0675,34.27987C5.0675,34.27987,2.51442,35.9319,2.51442,35.9319C2.292631,36.0754,2,35.9162,2,35.652029999999996C2,35.652029999999996,2,32.348,2,32.348C2,32.348,2,32.348,2,32.348Z" /></g></g></svg>