<svg xmlns="http://www.w3.org/2000/svg" xmlns:xlink="http://www.w3.org/1999/xlink" version="1.1" width="28" height="28" viewBox="0 0 28 28"><g><g><path d="M10.5003221875,8.7503221875C10.5003221875,6.8173321875,12.0673321875,5.2503221875,14.0002921875,5.2503221875C15.9332921875,5.2503221875,17.5002921875,6.8173321875,17.5002921875,8.7503221875C17.5002921875,10.6833221875,15.9332921875,12.2503221875,14.0002921875,12.2503221875C12.0673321875,12.2503221875,10.5003221875,10.6833221875,10.5003221875,8.7503221875C10.5003221875,8.7503221875,10.5003221875,8.7503221875,10.5003221875,8.7503221875ZM14.0002921875,2.9169921875C10.778692187499999,2.9169921875,8.1669921875,5.5286621875,8.1669921875,8.7503221875C8.1669921875,11.9719621875,10.778692187499999,14.5836921875,14.0002921875,14.5836921875C17.2219921875,14.5836921875,19.8336921875,11.9719621875,19.8336921875,8.7503221875C19.8336921875,5.5286621875,17.2219921875,2.9169921875,14.0002921875,2.9169921875C14.0002921875,2.9169921875,14.0002921875,2.9169921875,14.0002921875,2.9169921875ZM9.3336621875,15.7502921875C7.6545721875,15.7502921875,6.0613921875,16.2619921875,4.8675721875,17.2724921875C3.6552351874999998,18.2987921875,2.9169921875,19.7913921875,2.9169921875,21.5836921875C2.9169921875,21.5836921875,2.9169921875,23.3336921875,2.9169921875,23.3336921875C2.9169921875,24.3001921875,3.7004961874999998,25.0836921875,4.6669921875,25.0836921875C4.6669921875,25.0836921875,23.3336921875,25.0836921875,23.3336921875,25.0836921875C24.3001921875,25.0836921875,25.0836921875,24.3001921875,25.0836921875,23.3336921875C25.0836921875,23.3336921875,25.0836921875,21.5836921875,25.0836921875,21.5836921875C25.0836921875,19.7913921875,24.3453921875,18.2987921875,23.1330921875,17.2724921875C21.9392921875,16.2619921875,20.3460921875,15.7502921875,18.6669921875,15.7502921875C18.6669921875,15.7502921875,9.3336621875,15.7502921875,9.3336621875,15.7502921875C9.3336621875,15.7502921875,9.3336621875,15.7502921875,9.3336621875,15.7502921875ZM5.2503221875,21.5836921875C5.2503221875,20.4764921875,5.6873321875,19.6356921875,6.375122187500001,19.0534921875C7.0814321875,18.455592187500002,8.113252187499999,18.0836921875,9.3336621875,18.0836921875C9.3336621875,18.0836921875,18.6669921875,18.0836921875,18.6669921875,18.0836921875C19.8873921875,18.0836921875,20.9192921875,18.455592187500002,21.6255921875,19.0534921875C22.3132921875,19.6356921875,22.7502921875,20.4764921875,22.7502921875,21.5836921875C22.7502921875,21.5836921875,22.7502921875,22.7502921875,22.7502921875,22.7502921875C22.7502921875,22.7502921875,5.2503221875,22.7502921875,5.2503221875,22.7502921875C5.2503221875,22.7502921875,5.2503221875,21.5836921875,5.2503221875,21.5836921875C5.2503221875,21.5836921875,5.2503221875,21.5836921875,5.2503221875,21.5836921875Z" fill-rule="evenodd" /></g></g></svg>