<svg xmlns="http://www.w3.org/2000/svg" xmlns:xlink="http://www.w3.org/1999/xlink" version="1.1" width="16" height="16" viewBox="0 0 16 16"><defs><clipPath id="master_svg0_46_01318"><rect x="0" y="0" width="16" height="16" rx="0"/></clipPath></defs><g clip-path="url(#master_svg0_46_01318)"><g><path d="M4.72949609375,3.787184375C4.72949609375,3.787184375,12.21359609375,11.271324375,12.21359609375,11.271324375C13.84199609375,9.179014375000001,13.69459609375,6.152554375,11.77139609375,4.229414375C9.84826609375,2.306264375,6.82179609375,2.1588543749999998,4.72949609375,3.787184375C4.72949609375,3.787184375,4.72949609375,3.787184375,4.72949609375,3.787184375ZM11.27083609375,12.214084375C11.27083609375,12.214084375,3.78669609375,4.729984375,3.78669609375,4.729984375C2.1583660937499998,6.822284375,2.30577609375,9.848754375,4.22892609375,11.771884375C6.15206609375,13.695084375,9.178526093750001,13.842484375,11.27083609375,12.214084375C11.27083609375,12.214084375,11.27083609375,12.214084375,11.27083609375,12.214084375ZM3.28611609375,3.286604375C5.88962609375,0.683111375,10.11069609375,0.683111375,12.71419609375,3.286604375C15.31769609375,5.890114375,15.31769609375,10.111184375,12.71419609375,12.714684375C10.11069609375,15.318184375,5.88962609375,15.318184375,3.28611609375,12.714684375C0.68262309375,10.111184375,0.68262309375,5.890114375,3.28611609375,3.286604375C3.28611609375,3.286604375,3.28611609375,3.286604375,3.28611609375,3.286604375Z" fill-rule="evenodd" fill-opacity="1"/></g></g></svg>