<svg xmlns="http://www.w3.org/2000/svg" xmlns:xlink="http://www.w3.org/1999/xlink" version="1.1" width="16" height="16" viewBox="0 0 16 16"><defs><clipPath id="master_svg0_46_00155"><rect x="0" y="0" width="16" height="16" rx="0"/></clipPath></defs><g clip-path="url(#master_svg0_46_00155)"><g><path d="M3.2226600000000003,9.80078L4.44434,9.80078L4.44434,12.8008L11.77734,12.8008L11.77734,3.19922L4.44434,3.19922L4.44434,6.19922L3.2226600000000003,6.19922L3.2226600000000003,2.599609C3.2226600000000003,2.268239,3.4955,2,3.83301,2L12.3887,2C12.7262,2,13,2.268239,13,2.599609L13,13.4004C13,13.7318,12.7262,14,12.3887,14L3.83301,14C3.4955,14,3.2226600000000003,13.7318,3.2226600000000003,13.4004L3.2226600000000003,9.80078ZM6.88867,7.40039L6.88867,5.59961L9.94434,8L6.88867,10.40039L6.88867,8.59961L2,8.59961L2,7.40039L6.88867,7.40039Z" fill-opacity="1"/></g></g></svg>