<svg xmlns="http://www.w3.org/2000/svg" xmlns:xlink="http://www.w3.org/1999/xlink" version="1.1" width="13.333333969116211" height="13.333333969116211" viewBox="0 0 13.333333969116211 13.333333969116211"><g><path d="M6.66667,1.33333C3.72113,1.33333,1.33333,3.72113,1.33333,6.66667C1.33333,9.6122,3.72113,12,6.66667,12C9.6122,12,12,9.6122,12,6.66667C12,3.72113,9.6122,1.33333,6.66667,1.33333C6.66667,1.33333,6.66667,1.33333,6.66667,1.33333ZM0,6.66667C0,2.98477,2.98477,0,6.66667,0C10.3486,0,13.3333,2.98477,13.3333,6.66667C13.3333,10.3486,10.3486,13.3333,6.66667,13.3333C2.98477,13.3333,0,10.3486,0,6.66667C0,6.66667,0,6.66667,0,6.66667ZM7.33333,3.33337C7.33333,3.33337,7.33333,4.6667,7.33333,4.6667C7.33333,4.6667,6,4.6667,6,4.6667C6,4.6667,6,3.33337,6,3.33337C6,3.33337,7.33333,3.33337,7.33333,3.33337C7.33333,3.33337,7.33333,3.33337,7.33333,3.33337ZM6,10C6,10,6,5.33337,6,5.33337C6,5.33337,7.33333,5.33337,7.33333,5.33337C7.33333,5.33337,7.33333,10,7.33333,10C7.33333,10,6,10,6,10C6,10,6,10,6,10Z" fill-rule="evenodd" /></g></svg>