<svg xmlns="http://www.w3.org/2000/svg" xmlns:xlink="http://www.w3.org/1999/xlink" version="1.1" width="16" height="16" viewBox="0 0 16 16"><g><g><path d="M2.6669921875,3.20003C2.6669921875,2.5372909999999997,3.1936771875,2,3.8434221875,2C3.8434221875,2,10.9302621875,2,10.9302621875,2C10.9302621875,2,13.3336921875,4.451499999999999,13.3336921875,4.451499999999999C13.3336921875,4.451499999999999,13.3336921875,12.8,13.3336921875,12.8C13.3336921875,13.4627,12.8069921875,14,12.1572221875,14C12.1572221875,14,3.8434221875,14,3.8434221875,14C3.1936771875,14,2.6669921875,13.4627,2.6669921875,12.8C2.6669921875,12.8,2.6669921875,3.20003,2.6669921875,3.20003C2.6669921875,3.20003,2.6669921875,3.20003,2.6669921875,3.20003ZM10.442952187500001,3.20003C10.442952187500001,3.20003,3.8434221875,3.20003,3.8434221875,3.20003C3.8434221875,3.20003,3.8434221875,12.8,3.8434221875,12.8C3.8434221875,12.8,12.1572221875,12.8,12.1572221875,12.8C12.1572221875,12.8,12.1572221875,4.94857,12.1572221875,4.94857C12.1572221875,4.94857,10.442952187500001,3.20003,10.442952187500001,3.20003C10.442952187500001,3.20003,10.442952187500001,3.20003,10.442952187500001,3.20003ZM10.3532721875,7.7C10.3532721875,7.7,5.6473821875,7.7,5.6473821875,7.7C5.6473821875,7.7,5.6473821875,6.5,5.6473821875,6.5C5.6473821875,6.5,10.3532721875,6.5,10.3532721875,6.5C10.3532721875,6.5,10.3532721875,7.7,10.3532721875,7.7C10.3532721875,7.7,10.3532721875,7.7,10.3532721875,7.7ZM8.5885621875,10.1C8.5885621875,10.1,5.6473821875,10.1,5.6473821875,10.1C5.6473821875,10.1,5.6473821875,8.9,5.6473821875,8.9C5.6473821875,8.9,8.5885621875,8.9,8.5885621875,8.9C8.5885621875,8.9,8.5885621875,10.1,8.5885621875,10.1C8.5885621875,10.1,8.5885621875,10.1,8.5885621875,10.1Z" fill-rule="evenodd" fill-opacity="1"/></g></g></svg>