<svg xmlns="http://www.w3.org/2000/svg" xmlns:xlink="http://www.w3.org/1999/xlink" version="1.1" width="28" height="28" viewBox="0 0 28 28"><defs><clipPath id="master_svg0_178_15669"><rect x="0" y="0" width="28" height="28" rx="0"/></clipPath></defs><g clip-path="url(#master_svg0_178_15669)"><g><path d="M7.5836621875,8.7496778125C7.5836621875,5.2058478125,10.4565221875,2.3330078125,14.0002921875,2.3330078125C17.5440921875,2.3330078125,20.4169921875,5.2058478125,20.4169921875,8.7496778125C20.4169921875,8.7496778125,18.0836921875,8.7496778125,18.0836921875,8.7496778125C18.0836921875,6.4945178125,16.2554921875,4.6663378125,14.0002921875,4.6663378125C11.7451621875,4.6663378125,9.9169921875,6.4945178125,9.9169921875,8.7496778125C9.9169921875,8.7496778125,9.9169921875,11.0830078125,9.9169921875,11.0830078125C9.9169921875,11.0830078125,23.3336921875,11.0830078125,23.3336921875,11.0830078125C24.3001921875,11.0830078125,25.0836921875,11.8664778125,25.0836921875,12.8330078125C25.0836921875,12.8330078125,25.0836921875,23.3330078125,25.0836921875,23.3330078125C25.0836921875,24.2995078125,24.3001921875,25.0830078125,23.3336921875,25.0830078125C23.3336921875,25.0830078125,4.6669921875,25.0830078125,4.6669921875,25.0830078125C3.7004961874999998,25.0830078125,2.9169921875,24.2995078125,2.9169921875,23.3330078125C2.9169921875,23.3330078125,2.9169921875,12.8330078125,2.9169921875,12.8330078125C2.9169921875,11.8664778125,3.7004961874999998,11.0830078125,4.6669921875,11.0830078125C4.6669921875,11.0830078125,7.5836621875,11.0830078125,7.5836621875,11.0830078125C7.5836621875,11.0830078125,7.5836621875,8.7496778125,7.5836621875,8.7496778125C7.5836621875,8.7496778125,7.5836621875,8.7496778125,7.5836621875,8.7496778125ZM5.2503221875,13.4163078125C5.2503221875,13.4163078125,5.2503221875,22.7497078125,5.2503221875,22.7497078125C5.2503221875,22.7497078125,22.7502921875,22.7497078125,22.7502921875,22.7497078125C22.7502921875,22.7497078125,22.7502921875,13.4163078125,22.7502921875,13.4163078125C22.7502921875,13.4163078125,5.2503221875,13.4163078125,5.2503221875,13.4163078125C5.2503221875,13.4163078125,5.2503221875,13.4163078125,5.2503221875,13.4163078125ZM15.1669921875,20.9997078125C15.1669921875,20.9997078125,15.1669921875,15.1663078125,15.1669921875,15.1663078125C15.1669921875,15.1663078125,12.8336621875,15.1663078125,12.8336621875,15.1663078125C12.8336621875,15.1663078125,12.8336621875,20.9997078125,12.8336621875,20.9997078125C12.8336621875,20.9997078125,15.1669921875,20.9997078125,15.1669921875,20.9997078125C15.1669921875,20.9997078125,15.1669921875,20.9997078125,15.1669921875,20.9997078125Z" fill-rule="evenodd" /></g></g></svg>