<svg xmlns="http://www.w3.org/2000/svg" xmlns:xlink="http://www.w3.org/1999/xlink" version="1.1" width="24" height="24" viewBox="0 0 24 24"><g><g><path d="M6.5,3C6.5,3,3.5,3,3.5,3C3.5,3,3.5,6,3.5,6C3.5,6,6.5,6,6.5,6C6.5,6,6.5,3,6.5,3C6.5,3,6.5,3,6.5,3ZM6.5,10.5C6.5,10.5,3.5,10.5,3.5,10.5C3.5,10.5,3.5,13.5,3.5,13.5C3.5,13.5,6.5,13.5,6.5,13.5C6.5,13.5,6.5,10.5,6.5,10.5C6.5,10.5,6.5,10.5,6.5,10.5ZM6.5,18C6.5,18,3.5,18,3.5,18C3.5,18,3.5,21,3.5,21C3.5,21,6.5,21,6.5,21C6.5,21,6.5,18,6.5,18C6.5,18,6.5,18,6.5,18ZM10.5,3C10.5,3,13.5,3,13.5,3C13.5,3,13.5,6,13.5,6C13.5,6,10.5,6,10.5,6C10.5,6,10.5,3,10.5,3C10.5,3,10.5,3,10.5,3ZM10.5,10.5C10.5,10.5,13.5,10.5,13.5,10.5C13.5,10.5,13.5,13.5,13.5,13.5C13.5,13.5,10.5,13.5,10.5,13.5C10.5,13.5,10.5,10.5,10.5,10.5C10.5,10.5,10.5,10.5,10.5,10.5ZM10.5,18C10.5,18,13.5,18,13.5,18C13.5,18,13.5,21,13.5,21C13.5,21,10.5,21,10.5,21C10.5,21,10.5,18,10.5,18C10.5,18,10.5,18,10.5,18ZM17.5,3C17.5,3,20.5,3,20.5,3C20.5,3,20.5,6,20.5,6C20.5,6,17.5,6,17.5,6C17.5,6,17.5,3,17.5,3C17.5,3,17.5,3,17.5,3ZM17.5,10.5C17.5,10.5,20.5,10.5,20.5,10.5C20.5,10.5,20.5,13.5,20.5,13.5C20.5,13.5,17.5,13.5,17.5,13.5C17.5,13.5,17.5,10.5,17.5,10.5C17.5,10.5,17.5,10.5,17.5,10.5ZM17.5,18C17.5,18,20.5,18,20.5,18C20.5,18,20.5,21,20.5,21C20.5,21,17.5,21,17.5,21C17.5,21,17.5,18,17.5,18C17.5,18,17.5,18,17.5,18Z" fill-rule="evenodd"/></g></g></svg>