<svg xmlns="http://www.w3.org/2000/svg" xmlns:xlink="http://www.w3.org/1999/xlink" version="1.1" width="16" height="16" viewBox="0 0 16 16"><defs><clipPath id="master_svg0_18_8541"><rect x="0" y="1.7763568394002505e-15" width="16" height="16" rx="0"/></clipPath></defs><g transform="matrix(1,-1.6081230200044232e-16,1.6081230200044232e-16,1,-2.856600325181843e-31,0)" clip-path="url(#master_svg0_18_8541)"><g transform="matrix(0,-1,1,0,-7.000000000000002,11.000000000000002)"><path d="M4,9.000000000000002C4,9.000000000000002,2.0000000000000377,9.00000000000001,2.0000000000000377,9.00000000000001C2.0000000000000377,9.00000000000001,2,11.000000000000002,2,11.000000000000002C2,11.000000000000002,4,11.000000000000002,4,11.000000000000002C4,11.000000000000002,4,9.000000000000002,4,9.000000000000002C4,9.000000000000002,4,9.000000000000002,4,9.000000000000002ZM4,14.000000000000002C4,14.000000000000002,2,14.000000000000002,2,14.000000000000002C2,14.000000000000002,2.0000000000000377,16,2.0000000000000377,16C2.0000000000000377,16,4,16,4,16C4,16,4,14.000000000000002,4,14.000000000000002C4,14.000000000000002,4,14.000000000000002,4,14.000000000000002ZM4,19C4,19,2.0000000000000377,19,2.0000000000000377,19C2.0000000000000377,19,2,21,2,21C2,21,4,21,4,21C4,21,4,19,4,19C4,19,4,19,4,19Z" fill-rule="evenodd" /></g></g></svg>