<svg xmlns="http://www.w3.org/2000/svg" xmlns:xlink="http://www.w3.org/1999/xlink" version="1.1" width="16" height="16" viewBox="0 0 16 16"><defs><clipPath id="master_svg0_44_00429"><rect x="0" y="0" width="16" height="16" rx="0"/></clipPath></defs><g clip-path="url(#master_svg0_44_00429)"><g transform="matrix(-1,0,0,-1,29.3330078125,29.3330078125)"><path d="M15.99983390625,21.33317390625C15.99983390625,18.38763390625,18.38763390625,15.99983390625,21.33317390625,15.99983390625C24.27870390625,15.99983390625,26.66650390625,18.38763390625,26.66650390625,21.33317390625C26.66650390625,24.27870390625,24.27870390625,26.66650390625,21.33317390625,26.66650390625C18.38763390625,26.66650390625,15.99983390625,24.27870390625,15.99983390625,21.33317390625C15.99983390625,21.33317390625,15.99983390625,21.33317390625,15.99983390625,21.33317390625ZM21.33317390625,14.66650390625C17.65127390625,14.66650390625,14.66650390625,17.65127390625,14.66650390625,21.33317390625C14.66650390625,25.015103906249998,17.65127390625,27.99980390625,21.33317390625,27.99980390625C25.015103906249998,27.99980390625,27.99980390625,25.015103906249998,27.99980390625,21.33317390625C27.99980390625,17.65127390625,25.015103906249998,14.66650390625,21.33317390625,14.66650390625C21.33317390625,14.66650390625,21.33317390625,14.66650390625,21.33317390625,14.66650390625ZM24.63300390625,22.35687390625C24.63300390625,22.35687390625,21.33317390625,19.05703390625,21.33317390625,19.05703390625C21.33317390625,19.05703390625,18.03333390625,22.35687390625,18.03333390625,22.35687390625C18.03333390625,22.35687390625,18.97613390625,23.29967390625,18.97613390625,23.29967390625C18.97613390625,23.29967390625,21.33317390625,20.942633906250002,21.33317390625,20.942633906250002C21.33317390625,20.942633906250002,23.690203906249998,23.29967390625,23.690203906249998,23.29967390625C23.690203906249998,23.29967390625,24.63300390625,22.35687390625,24.63300390625,22.35687390625C24.63300390625,22.35687390625,24.63300390625,22.35687390625,24.63300390625,22.35687390625Z" fill-rule="evenodd" /></g></g></svg>