<?xml version="1.0" standalone="no"?><!DOCTYPE svg PUBLIC "-//W3C//DTD SVG 1.1//EN" "http://www.w3.org/Graphics/SVG/1.1/DTD/svg11.dtd"><svg t="1692339926125" class="icon" viewBox="0 0 1024 1024" version="1.1" xmlns="http://www.w3.org/2000/svg" p-id="1079" xmlns:xlink="http://www.w3.org/1999/xlink" width="200" height="200"><path d="M1003.662222 482.417778c-40.163556-84.650667-87.978667-153.685333-143.416889-207.075556l-58.168889 58.140445c47.416889 45.312 88.746667 104.590222 124.444445 178.403555C831.431111 708.693333 696.462222 802.190222 512 802.190222c-55.352889 0-106.382222-8.533333-153.002667-25.6l-63.004444 63.004445c64.768 29.923556 136.760889 44.885333 216.007111 44.885333 219.676444 0 383.544889-114.403556 491.662222-343.210667a68.892444 68.892444 0 0 0 0-58.88zM931.015111 115.968l-48.725333-48.782222a9.159111 9.159111 0 0 0-12.942222 0L744.391111 192.113778C675.441778 156.928 597.987556 139.320889 512 139.320889 292.352 139.320889 128.455111 253.724444 20.337778 482.531556a68.920889 68.920889 0 0 0 0 58.851555c43.207111 90.965333 95.203556 163.896889 156.017778 218.737778l-120.945778 120.888889a9.130667 9.130667 0 0 0 0 12.942222l48.782222 48.810667a9.159111 9.159111 0 0 0 12.942222 0L930.986667 128.910222a9.159111 9.159111 0 0 0 0-12.942222zM97.479111 511.914667C192.682667 315.050667 327.68 221.582222 512 221.582222c62.350222 0 119.011556 10.695111 170.439111 32.426667l-80.355555 80.355555a201.159111 201.159111 0 0 0-272.156445 272.156445l-95.317333 95.317333c-52.764444-46.563556-98.247111-109.653333-137.102222-189.980444z m281.941333 0a128.113778 128.113778 0 0 1 167.111112-121.941334l-161.024 160.995556a128 128 0 0 1-6.087112-39.082667z" p-id="1080"></path><path d="M507.448889 640.085333c-3.953778 0-7.850667-0.199111-11.719111-0.568889l-60.359111 60.387556a201.244444 201.244444 0 0 0 259.925333-259.896889L634.88 500.337778a127.601778 127.601778 0 0 1-9.187556 60.700444 127.914667 127.914667 0 0 1-118.272 79.018667z" p-id="1081"></path></svg>