<svg xmlns="http://www.w3.org/2000/svg" xmlns:xlink="http://www.w3.org/1999/xlink" version="1.1" width="20" height="20" viewBox="0 0 20 20"><defs><clipPath id="master_svg0_3_7662"><rect x="0" y="0" width="20" height="20" rx="0"/></clipPath></defs><g clip-path="url(#master_svg0_3_7662)"><g></g><g><path d="M8.88932625,3.5272990039062497C8.88932625,3.5272990039062497,8.88932625,2.22222900390625,8.88932625,2.22222900390625C8.88932625,2.22222900390625,10.55598625,2.22222900390625,10.55598625,2.22222900390625C10.55598625,2.22222900390625,10.55598625,3.5272990039062497,10.55598625,3.5272990039062497C13.61375625,3.9347090039062502,15.97265625,6.55297900390625,15.97265625,9.72222900390625C15.97265625,9.72222900390625,15.97265625,14.30552900390625,15.97265625,14.30552900390625C15.97265625,14.30552900390625,17.22265625,14.30552900390625,17.22265625,14.30552900390625C17.22265625,14.30552900390625,17.22265625,15.97222900390625,17.22265625,15.97222900390625C17.22265625,15.97222900390625,2.22265625,15.97222900390625,2.22265625,15.97222900390625C2.22265625,15.97222900390625,2.22265625,14.30552900390625,2.22265625,14.30552900390625C2.22265625,14.30552900390625,3.47265625,14.30552900390625,3.47265625,14.30552900390625C3.47265625,14.30552900390625,3.47265625,9.72222900390625,3.47265625,9.72222900390625C3.47265625,6.55297900390625,5.83152625,3.9347090039062502,8.88932625,3.5272990039062497C8.88932625,3.5272990039062497,8.88932625,3.5272990039062497,8.88932625,3.5272990039062497ZM5.13932625,14.30552900390625C5.13932625,14.30552900390625,14.30595625,14.30552900390625,14.30595625,14.30552900390625C14.30595625,14.30552900390625,14.30595625,9.72222900390625,14.30595625,9.72222900390625C14.30595625,7.19093900390625,12.25395625,5.13889900390625,9.72265625,5.13889900390625C7.19136625,5.13889900390625,5.13932625,7.19093900390625,5.13932625,9.72222900390625C5.13932625,9.72222900390625,5.13932625,14.30552900390625,5.13932625,14.30552900390625C5.13932625,14.30552900390625,5.13932625,14.30552900390625,5.13932625,14.30552900390625ZM12.63935625,17.22222900390625C12.63935625,17.22222900390625,12.63935625,18.88892900390625,12.63935625,18.88892900390625C12.63935625,18.88892900390625,6.80598625,18.88892900390625,6.80598625,18.88892900390625C6.80598625,18.88892900390625,6.80598625,17.22222900390625,6.80598625,17.22222900390625C6.80598625,17.22222900390625,12.63935625,17.22222900390625,12.63935625,17.22222900390625C12.63935625,17.22222900390625,12.63935625,17.22222900390625,12.63935625,17.22222900390625Z" /></g></g></svg>