<svg xmlns="http://www.w3.org/2000/svg" xmlns:xlink="http://www.w3.org/1999/xlink" version="1.1" width="16" height="16" viewBox="0 0 16 16"><defs><clipPath id="master_svg0_38_9850/38_7501"><rect x="0" y="0" width="16" height="16" rx="0"/></clipPath></defs><g clip-path="url(#master_svg0_38_9850/38_7501)"><g><path d="M14.3326259765625,13.640991C14.3326259765625,13.941942,14.1081259765625,14.18746,13.8449259765625,14.18746L2.1466569765625,14.18746C1.8863089765625,14.191559999999999,1.6719323565625,13.947499,1.6666259765625,13.640991C1.6666259765625,13.339225,1.8834389765625,13.09375,2.1466569765625,13.09375L13.8456259765625,13.09375C14.1088259765625,13.09375,14.3333259765625,13.340042,14.3333259765625,13.640177" fill-opacity="1"/></g><g><path d="M13.7628259765625,2.9366828125C14.0796259765625,2.9366828125,14.3333259765625,3.1811328125,14.3333259765625,3.4790028125L14.3333259765625,11.7681828125C14.3333259765625,12.0676828125,14.0796259765625,12.3121828125,13.7628259765625,12.3121828125L11.3900259765625,12.3121828125C11.0853059765625,12.3157828125,10.8346359765625,12.0732828125,10.8284259765625,11.7689828125L10.8284259765625,3.4798228125C10.8284259765625,3.1803328125,11.0820859765625,2.9366828125,11.3900259765625,2.9366828125L13.7628259765625,2.9366828125ZM11.9516259765625,11.2258828125L13.2012259765625,11.2258828125L13.2012259765625,4.021322812499999L11.9516259765625,4.021322812499999L11.9516259765625,11.2258828125ZM9.1912159765625,4.8364228125C9.4991559765625,4.8364228125,9.7527959765625,5.0808728125,9.7527959765625,5.3787428125L9.7527959765625,11.7689828125C9.7461559765625,12.0729828125,9.4956259765625,12.3149828125,9.1912159765625,12.3112828125L6.8087059765625,12.3112828125C6.5046159765625,12.3144828125,6.2545759765625,12.0726828125,6.2479259765625,11.7689828125L6.2479259765625,5.3795528125C6.2479259765625,5.0800728125,6.5015759765625,4.8364228125,6.8087059765625,4.8364228125L9.1912159765625,4.8364228125ZM7.3800259765625,11.2266828125L8.620705976562501,11.2266828125L8.620705976562501,5.9226928125L7.3800259765625,5.9226928125L7.3800259765625,11.2266828125ZM4.6098959765625,1.1931966145C4.9178359765625,1.1931966145,5.1803959765625,1.4376438125,5.1803959765625,1.7355148125L5.1803959765625,11.7689828125C5.1803959765625,12.0676828125,4.9178359765625,12.3112828125,4.6098959765625,12.3112828125L2.2282099765625,12.3112828125C1.9238029765625,12.3149828125,1.6732709565625,12.0729828125,1.6666259765625,11.7689828125L1.6666259765625,1.7355148125C1.6666259765625,1.4360248125,1.9202689765625,1.1923828125,2.2282099765625,1.1923828125L4.6098959765625,1.1923828125L4.6098959765625,1.1931966145ZM2.7987259765625003,11.2266828125L4.0393959765625,11.2266828125L4.0393959765625,2.2778328125L2.7987259765625003,2.2778328125L2.7987259765625003,11.2258828125L2.7987259765625003,11.2266828125Z" /></g></g></svg>