<svg xmlns="http://www.w3.org/2000/svg" xmlns:xlink="http://www.w3.org/1999/xlink" version="1.1" width="20" height="20" viewBox="0 0 20 20"><defs><clipPath id="master_svg0_3_7658"><rect x="0" y="0" width="20" height="20" rx="0"/></clipPath></defs><g clip-path="url(#master_svg0_3_7658)"><g></g><g><path d="M2.83925,11.63654C2.83925,11.63654,10.77346,3.70233,10.77346,3.70233C10.77346,3.70233,15.6839,4.684419999999999,15.6839,4.684419999999999C15.6839,4.684419999999999,16.666,9.59487,16.666,9.59487C16.666,9.59487,8.73179,17.5291,8.73179,17.5291C8.73179,17.5291,2.83925,11.63654,2.83925,11.63654C2.83925,11.63654,2.83925,11.63654,2.83925,11.63654ZM10.88167,2.0242944C10.47183,1.9423296,10.04817,2.0706067,9.75263,2.366137C9.75263,2.366137,1.3661159999999999,10.75267,1.3661159999999999,10.75267C0.877961,11.24083,0.877962,12.0323,1.366117,12.5204C1.366117,12.5204,7.84792,19.0023,7.84792,19.0023C8.336079999999999,19.4904,9.12754,19.4904,9.61571,19.0023C9.61571,19.0023,18.0022,10.61571,18.0022,10.61571C18.2978,10.32017,18.426,9.8965,18.344,9.48667C18.344,9.48667,17.2638,4.085179999999999,17.2638,4.085179999999999C17.1648,3.59035,16.778,3.20356,16.2832,3.1046C16.2832,3.1046,10.88167,2.0242944,10.88167,2.0242944C10.88167,2.0242944,10.88167,2.0242944,10.88167,2.0242944ZM13.5678,7.25175C13.5678,7.48187,13.3813,7.66842,13.1512,7.66842C13.0766,7.66842,13.0066,7.64883,12.9461,7.61454C12.8208,7.54271,12.7363,7.40763,12.7363,7.25279C12.7363,7.02267,12.9229,6.83612,13.153,6.83612C13.2276,6.83612,13.2976,6.85571,13.3581,6.89004C13.4834,6.96187,13.5678,7.09696,13.5678,7.25175C13.5678,7.25175,13.5678,7.25175,13.5678,7.25175ZM13.1512,6.00174C12.4608,6.00174,11.9012,6.56138,11.9012,7.25175C11.9012,7.71763,12.156,8.12396,12.5339,8.33896C12.7164,8.44321,12.9278,8.502790000000001,13.153,8.502790000000001C13.8433,8.502790000000001,14.403,7.94313,14.403,7.25279C14.403,6.78654,14.1478,6.37992,13.7693,6.16506C13.587,6.06112,13.376,6.00174,13.1512,6.00174C13.1512,6.00174,13.1512,6.00174,13.1512,6.00174Z" /></g></g></svg>