<svg xmlns="http://www.w3.org/2000/svg" xmlns:xlink="http://www.w3.org/1999/xlink" version="1.1" width="16" height="16" viewBox="0 0 16 16"><defs><clipPath id="master_svg0_46_07936"><rect x="0" y="0" width="16" height="16" rx="0"/></clipPath></defs><g clip-path="url(#master_svg0_46_07936)"><g><path d="M8.000399999999999,1.72265625C8.000399999999999,1.72265625,11.4955,5.21775625,11.4955,5.21775625C11.4955,5.21775625,10.5527,6.16055625,10.5527,6.16055625C10.5527,6.16055625,8.66743,4.27529625,8.66743,4.27529625C8.66743,4.27529625,8.66743,11.04618625,8.66743,11.04618625C8.66743,11.04618625,7.3341,11.04618625,7.3341,11.04618625C7.3341,11.04618625,7.3341,4.2745862500000005,7.3341,4.2745862500000005C7.3341,4.2745862500000005,5.4481,6.16055625,5.4481,6.16055625C5.4481,6.16055625,4.50531,5.21775625,4.50531,5.21775625C4.50531,5.21775625,8.000399999999999,1.72265625,8.000399999999999,1.72265625C8.000399999999999,1.72265625,8.000399999999999,1.72265625,8.000399999999999,1.72265625ZM3.33333,12.99875625C3.33333,12.99875625,3.33333,11.66545625,3.33333,11.66545625C3.33333,11.66545625,2,11.66545625,2,11.66545625C2,11.66545625,2,14.33215625,2,14.33215625C2,14.33215625,14,14.33215625,14,14.33215625C14,14.33215625,14,11.66545625,14,11.66545625C14,11.66545625,12.6667,11.66545625,12.6667,11.66545625C12.6667,11.66545625,12.6667,12.99875625,12.6667,12.99875625C12.6667,12.99875625,3.33333,12.99875625,3.33333,12.99875625C3.33333,12.99875625,3.33333,12.99875625,3.33333,12.99875625Z" fill-rule="evenodd"/></g></g></svg>